<?xml version="1.0" standalone="no"?>
<!DOCTYPE svg PUBLIC "-//W3C//DTD SVG 20010904//EN"
 "http://www.w3.org/TR/2001/REC-SVG-20010904/DTD/svg10.dtd">
<svg version="1.0" xmlns="http://www.w3.org/2000/svg"
 width="211.000000pt" height="211.000000pt" viewBox="0 0 211.000000 211.000000"
 preserveAspectRatio="xMidYMid meet">
<metadata>
Created by potrace 1.11, written by Peter Selinger 2001-2013
</metadata>
<g transform="translate(0.000000,211.000000) scale(0.100000,-0.100000)"
fill="#000000" stroke="none">
<path d="M1180 1812 l0 -279 115 -114 115 -114 53 3 c70 3 124 -27 155 -88 28
-56 28 -96 -1 -150 -26 -50 -90 -90 -142 -90 -98 0 -188 97 -169 183 5 25 -5
39 -106 139 -110 110 -111 112 -105 148 19 113 -70 214 -183 209 -154 -7 -225
-192 -117 -301 39 -38 109 -64 147 -55 21 6 69 -39 353 -323 l329 -329 52 0
c105 2 177 -71 173 -171 l-3 -51 132 -132 132 -132 0 506 0 507 -455 453
c-251 250 -460 456 -465 457 -6 2 -10 -101 -10 -276z"/>
<path d="M215 1877 c-75 -24 -125 -92 -125 -167 0 -109 95 -193 199 -178 28 4
61 -27 442 -408 404 -404 413 -412 446 -407 48 8 118 -22 151 -65 23 -30 27
-45 27 -98 0 -73 -19 -105 -81 -142 -31 -18 -50 -22 -92 -19 -93 7 -152 71
-152 166 l0 56 -252 253 -253 252 0 65 c-1 55 -5 70 -30 106 -70 99 -203 108
-278 19 -100 -118 -23 -291 131 -295 39 -1 49 -7 104 -62 l61 -61 -244 2
c-134 1 -250 0 -258 -2 -8 -3 163 -181 425 -443 l439 -439 597 0 c329 0 598 3
598 8 0 4 -71 78 -157 164 l-158 156 -40 -7 c-116 -21 -203 60 -192 180 l5 57
-543 540 -543 540 -4 65 c-3 51 -10 72 -31 101 -15 20 -37 41 -48 47 -33 17
-113 26 -144 16z"/>
</g>
</svg>
